<mxfile host="app.diagrams.net" modified="2021-08-27T21:52:13.883Z" agent="5.0 (Windows NT 10.0; Win64; x64) AppleWebKit/537.36 (KHTML, like Gecko) Chrome/92.0.4515.159 Safari/537.36" etag="bd-JMnGWALPyxEFvNKOb" version="15.0.3" type="github">
  <diagram id="SMwGUEMnSgFnPFMBGkIa" name="Page-1">
    <mxGraphModel dx="2500" dy="3234" grid="1" gridSize="10" guides="1" tooltips="1" connect="1" arrows="1" fold="1" page="1" pageScale="1" pageWidth="827" pageHeight="1169" math="0" shadow="0">
      <root>
        <mxCell id="0" />
        <mxCell id="1" parent="0" />
        <mxCell id="18RsudGsqTFJ1O7Z_rHa-3" value="" style="edgeStyle=orthogonalEdgeStyle;rounded=0;orthogonalLoop=1;jettySize=auto;html=1;" parent="1" source="mTh_-4iABWyhHadGjuGW-1" target="18RsudGsqTFJ1O7Z_rHa-2" edge="1">
          <mxGeometry relative="1" as="geometry" />
        </mxCell>
        <mxCell id="mTh_-4iABWyhHadGjuGW-1" value="&lt;font style=&quot;font-size: 22px&quot;&gt;목표 달성&lt;br&gt;&lt;/font&gt;" style="rounded=0;whiteSpace=wrap;html=1;" parent="1" vertex="1">
          <mxGeometry x="330" y="-1140" width="167" height="110" as="geometry" />
        </mxCell>
        <mxCell id="18RsudGsqTFJ1O7Z_rHa-6" style="edgeStyle=orthogonalEdgeStyle;rounded=0;orthogonalLoop=1;jettySize=auto;html=1;exitX=0.5;exitY=0;exitDx=0;exitDy=0;" parent="1" source="mTh_-4iABWyhHadGjuGW-2" target="mTh_-4iABWyhHadGjuGW-5" edge="1">
          <mxGeometry relative="1" as="geometry" />
        </mxCell>
        <mxCell id="mTh_-4iABWyhHadGjuGW-2" value="&lt;font style=&quot;font-size: 20px&quot;&gt;회사 지원서 넣기&lt;/font&gt;" style="rounded=0;whiteSpace=wrap;html=1;" parent="1" vertex="1">
          <mxGeometry x="325.75" y="-550" width="158.5" height="70" as="geometry" />
        </mxCell>
        <mxCell id="18RsudGsqTFJ1O7Z_rHa-8" value="" style="edgeStyle=orthogonalEdgeStyle;rounded=0;orthogonalLoop=1;jettySize=auto;html=1;" parent="1" source="mTh_-4iABWyhHadGjuGW-3" target="mTh_-4iABWyhHadGjuGW-13" edge="1">
          <mxGeometry relative="1" as="geometry" />
        </mxCell>
        <mxCell id="mTh_-4iABWyhHadGjuGW-3" value="&lt;font style=&quot;font-size: 22px&quot;&gt;면접 준비&lt;/font&gt;" style="rounded=0;whiteSpace=wrap;html=1;" parent="1" vertex="1">
          <mxGeometry x="325.75" y="-720" width="163" height="70" as="geometry" />
        </mxCell>
        <mxCell id="18RsudGsqTFJ1O7Z_rHa-1" value="" style="edgeStyle=orthogonalEdgeStyle;rounded=0;orthogonalLoop=1;jettySize=auto;html=1;" parent="1" source="mTh_-4iABWyhHadGjuGW-4" target="mTh_-4iABWyhHadGjuGW-1" edge="1">
          <mxGeometry relative="1" as="geometry" />
        </mxCell>
        <mxCell id="mTh_-4iABWyhHadGjuGW-4" value="&lt;font style=&quot;font-size: 20px&quot;&gt;코딩테스트 시험&lt;/font&gt;" style="rounded=0;whiteSpace=wrap;html=1;" parent="1" vertex="1">
          <mxGeometry x="330" y="-1000" width="160" height="80" as="geometry" />
        </mxCell>
        <mxCell id="18RsudGsqTFJ1O7Z_rHa-7" style="edgeStyle=orthogonalEdgeStyle;rounded=0;orthogonalLoop=1;jettySize=auto;html=1;exitX=0.5;exitY=0;exitDx=0;exitDy=0;" parent="1" source="mTh_-4iABWyhHadGjuGW-5" target="mTh_-4iABWyhHadGjuGW-3" edge="1">
          <mxGeometry relative="1" as="geometry" />
        </mxCell>
        <mxCell id="mTh_-4iABWyhHadGjuGW-5" value="&lt;font style=&quot;font-size: 20px&quot;&gt;1차 합격&lt;/font&gt;" style="rounded=0;whiteSpace=wrap;html=1;" parent="1" vertex="1">
          <mxGeometry x="327.25" y="-630" width="160" height="60" as="geometry" />
        </mxCell>
        <mxCell id="18RsudGsqTFJ1O7Z_rHa-5" value="" style="edgeStyle=orthogonalEdgeStyle;rounded=0;orthogonalLoop=1;jettySize=auto;html=1;" parent="1" source="mTh_-4iABWyhHadGjuGW-6" target="mTh_-4iABWyhHadGjuGW-2" edge="1">
          <mxGeometry relative="1" as="geometry" />
        </mxCell>
        <mxCell id="mTh_-4iABWyhHadGjuGW-6" value="&lt;font style=&quot;font-size: 20px&quot;&gt;자기소개서 작성&lt;/font&gt;" style="rounded=0;whiteSpace=wrap;html=1;" parent="1" vertex="1">
          <mxGeometry x="324.25" y="-450" width="160" height="70" as="geometry" />
        </mxCell>
        <mxCell id="18RsudGsqTFJ1O7Z_rHa-4" value="" style="edgeStyle=orthogonalEdgeStyle;rounded=0;orthogonalLoop=1;jettySize=auto;html=1;" parent="1" source="mTh_-4iABWyhHadGjuGW-7" target="mTh_-4iABWyhHadGjuGW-6" edge="1">
          <mxGeometry relative="1" as="geometry" />
        </mxCell>
        <mxCell id="mTh_-4iABWyhHadGjuGW-7" value="&lt;font style=&quot;font-size: 21px&quot;&gt;지원할 회사 찾기&lt;/font&gt;" style="rounded=0;whiteSpace=wrap;html=1;" parent="1" vertex="1">
          <mxGeometry x="318.5" y="-350" width="171.5" height="70" as="geometry" />
        </mxCell>
        <mxCell id="18RsudGsqTFJ1O7Z_rHa-9" style="edgeStyle=orthogonalEdgeStyle;rounded=0;orthogonalLoop=1;jettySize=auto;html=1;exitX=0.5;exitY=0;exitDx=0;exitDy=0;" parent="1" source="mTh_-4iABWyhHadGjuGW-13" target="mTh_-4iABWyhHadGjuGW-4" edge="1">
          <mxGeometry relative="1" as="geometry" />
        </mxCell>
        <mxCell id="mTh_-4iABWyhHadGjuGW-13" value="" style="rhombus;whiteSpace=wrap;html=1;" parent="1" vertex="1">
          <mxGeometry x="336.5" y="-900" width="147.75" height="140" as="geometry" />
        </mxCell>
        <mxCell id="mTh_-4iABWyhHadGjuGW-19" value="" style="edgeStyle=orthogonalEdgeStyle;rounded=0;orthogonalLoop=1;jettySize=auto;html=1;" parent="1" source="mTh_-4iABWyhHadGjuGW-14" target="mTh_-4iABWyhHadGjuGW-15" edge="1">
          <mxGeometry relative="1" as="geometry" />
        </mxCell>
        <mxCell id="mTh_-4iABWyhHadGjuGW-14" value="알고리즘 기초 1 / 2" style="rounded=0;whiteSpace=wrap;html=1;" parent="1" vertex="1">
          <mxGeometry x="590" y="-360" width="180" height="80" as="geometry" />
        </mxCell>
        <mxCell id="mTh_-4iABWyhHadGjuGW-20" style="edgeStyle=orthogonalEdgeStyle;rounded=0;orthogonalLoop=1;jettySize=auto;html=1;exitX=0.5;exitY=0;exitDx=0;exitDy=0;" parent="1" source="mTh_-4iABWyhHadGjuGW-15" target="mTh_-4iABWyhHadGjuGW-16" edge="1">
          <mxGeometry relative="1" as="geometry" />
        </mxCell>
        <mxCell id="mTh_-4iABWyhHadGjuGW-15" value="알고리즘 기초 2 / 2" style="rounded=0;whiteSpace=wrap;html=1;" parent="1" vertex="1">
          <mxGeometry x="590" y="-465" width="180" height="80" as="geometry" />
        </mxCell>
        <mxCell id="mTh_-4iABWyhHadGjuGW-21" value="" style="edgeStyle=orthogonalEdgeStyle;rounded=0;orthogonalLoop=1;jettySize=auto;html=1;" parent="1" source="mTh_-4iABWyhHadGjuGW-16" target="mTh_-4iABWyhHadGjuGW-17" edge="1">
          <mxGeometry relative="1" as="geometry" />
        </mxCell>
        <mxCell id="mTh_-4iABWyhHadGjuGW-16" value="알고리즘 중급 1 / 3" style="rounded=0;whiteSpace=wrap;html=1;" parent="1" vertex="1">
          <mxGeometry x="590" y="-565" width="180" height="80" as="geometry" />
        </mxCell>
        <mxCell id="mTh_-4iABWyhHadGjuGW-22" value="" style="edgeStyle=orthogonalEdgeStyle;rounded=0;orthogonalLoop=1;jettySize=auto;html=1;" parent="1" source="mTh_-4iABWyhHadGjuGW-17" target="mTh_-4iABWyhHadGjuGW-18" edge="1">
          <mxGeometry relative="1" as="geometry" />
        </mxCell>
        <mxCell id="mTh_-4iABWyhHadGjuGW-17" value="코딩테스트 준비 - 연습" style="rounded=0;whiteSpace=wrap;html=1;" parent="1" vertex="1">
          <mxGeometry x="590" y="-669" width="180" height="80" as="geometry" />
        </mxCell>
        <mxCell id="mTh_-4iABWyhHadGjuGW-25" style="edgeStyle=orthogonalEdgeStyle;rounded=0;orthogonalLoop=1;jettySize=auto;html=1;exitX=0;exitY=0.5;exitDx=0;exitDy=0;entryX=1;entryY=0.5;entryDx=0;entryDy=0;" parent="1" source="mTh_-4iABWyhHadGjuGW-18" target="mTh_-4iABWyhHadGjuGW-13" edge="1">
          <mxGeometry relative="1" as="geometry" />
        </mxCell>
        <mxCell id="mTh_-4iABWyhHadGjuGW-18" value="코딩테스트 준비 - 문제" style="rounded=0;whiteSpace=wrap;html=1;" parent="1" vertex="1">
          <mxGeometry x="590" y="-775" width="180" height="80" as="geometry" />
        </mxCell>
        <mxCell id="mTh_-4iABWyhHadGjuGW-31" value="" style="edgeStyle=orthogonalEdgeStyle;rounded=0;orthogonalLoop=1;jettySize=auto;html=1;" parent="1" source="mTh_-4iABWyhHadGjuGW-26" target="mTh_-4iABWyhHadGjuGW-27" edge="1">
          <mxGeometry relative="1" as="geometry" />
        </mxCell>
        <mxCell id="mTh_-4iABWyhHadGjuGW-26" value="html,css 어떤 웹사이트 구현 가능" style="rounded=0;whiteSpace=wrap;html=1;" parent="1" vertex="1">
          <mxGeometry x="70" y="-350" width="190" height="70" as="geometry" />
        </mxCell>
        <mxCell id="mTh_-4iABWyhHadGjuGW-32" value="" style="edgeStyle=orthogonalEdgeStyle;rounded=0;orthogonalLoop=1;jettySize=auto;html=1;" parent="1" source="mTh_-4iABWyhHadGjuGW-27" target="mTh_-4iABWyhHadGjuGW-29" edge="1">
          <mxGeometry relative="1" as="geometry" />
        </mxCell>
        <mxCell id="mTh_-4iABWyhHadGjuGW-27" value="html,css,javascript 동적인 웹사이트 구현" style="rounded=0;whiteSpace=wrap;html=1;" parent="1" vertex="1">
          <mxGeometry x="70" y="-445" width="190" height="60" as="geometry" />
        </mxCell>
        <mxCell id="mTh_-4iABWyhHadGjuGW-33" value="" style="edgeStyle=orthogonalEdgeStyle;rounded=0;orthogonalLoop=1;jettySize=auto;html=1;" parent="1" source="mTh_-4iABWyhHadGjuGW-29" target="mTh_-4iABWyhHadGjuGW-30" edge="1">
          <mxGeometry relative="1" as="geometry" />
        </mxCell>
        <mxCell id="mTh_-4iABWyhHadGjuGW-29" value="리액트를 이용하여 사이트 구현" style="rounded=0;whiteSpace=wrap;html=1;" parent="1" vertex="1">
          <mxGeometry x="70" y="-540" width="190" height="60" as="geometry" />
        </mxCell>
        <mxCell id="mTh_-4iABWyhHadGjuGW-34" value="" style="edgeStyle=orthogonalEdgeStyle;rounded=0;orthogonalLoop=1;jettySize=auto;html=1;" parent="1" source="mTh_-4iABWyhHadGjuGW-30" target="mTh_-4iABWyhHadGjuGW-5" edge="1">
          <mxGeometry relative="1" as="geometry" />
        </mxCell>
        <mxCell id="mTh_-4iABWyhHadGjuGW-30" value="서버를 구현 하여 사이트만들기" style="rounded=0;whiteSpace=wrap;html=1;" parent="1" vertex="1">
          <mxGeometry x="70" y="-630" width="190" height="60" as="geometry" />
        </mxCell>
        <mxCell id="mTh_-4iABWyhHadGjuGW-39" style="edgeStyle=orthogonalEdgeStyle;rounded=0;orthogonalLoop=1;jettySize=auto;html=1;entryX=0.25;entryY=1;entryDx=0;entryDy=0;" parent="1" source="mTh_-4iABWyhHadGjuGW-35" target="mTh_-4iABWyhHadGjuGW-37" edge="1">
          <mxGeometry relative="1" as="geometry" />
        </mxCell>
        <mxCell id="mTh_-4iABWyhHadGjuGW-35" value="자바스크립트 deep dive" style="rounded=0;whiteSpace=wrap;html=1;" parent="1" vertex="1">
          <mxGeometry x="-360" y="-355" width="150" height="70" as="geometry" />
        </mxCell>
        <mxCell id="mTh_-4iABWyhHadGjuGW-38" value="" style="edgeStyle=orthogonalEdgeStyle;rounded=0;orthogonalLoop=1;jettySize=auto;html=1;entryX=0.825;entryY=1.017;entryDx=0;entryDy=0;entryPerimeter=0;" parent="1" source="mTh_-4iABWyhHadGjuGW-36" target="mTh_-4iABWyhHadGjuGW-37" edge="1">
          <mxGeometry relative="1" as="geometry">
            <mxPoint x="-120" y="-400" as="targetPoint" />
          </mxGeometry>
        </mxCell>
        <mxCell id="mTh_-4iABWyhHadGjuGW-36" value="면접질문 모음" style="rounded=0;whiteSpace=wrap;html=1;" parent="1" vertex="1">
          <mxGeometry x="-130" y="-360" width="120" height="70" as="geometry" />
        </mxCell>
        <mxCell id="mTh_-4iABWyhHadGjuGW-40" style="edgeStyle=orthogonalEdgeStyle;rounded=0;orthogonalLoop=1;jettySize=auto;html=1;entryX=0;entryY=0.5;entryDx=0;entryDy=0;" parent="1" source="mTh_-4iABWyhHadGjuGW-37" target="mTh_-4iABWyhHadGjuGW-3" edge="1">
          <mxGeometry relative="1" as="geometry">
            <Array as="points">
              <mxPoint x="-180" y="-685" />
            </Array>
          </mxGeometry>
        </mxCell>
        <mxCell id="mTh_-4iABWyhHadGjuGW-37" value="" style="rounded=0;whiteSpace=wrap;html=1;" parent="1" vertex="1">
          <mxGeometry x="-240" y="-485" width="120" height="60" as="geometry" />
        </mxCell>
        <mxCell id="mTh_-4iABWyhHadGjuGW-42" value="&lt;b&gt;1&lt;/b&gt;, 4 / 4&lt;span style=&quot;color: rgba(0 , 0 , 0 , 0) ; font-family: monospace ; font-size: 0px&quot;&gt;%3CmxGraphModel%3E%3Croot%3E%3CmxCell%20id%3D%220%22%2F%3E%3CmxCell%20id%3D%221%22%20parent%3D%220%22%2F%3E%3CmxCell%20id%3D%222%22%20value%3D%22%EC%BD%94%EB%94%A9%ED%85%8C%EC%8A%A4%ED%8A%B8%20%EC%A4%80%EB%B9%84%20-%20%EC%97%B0%EC%8A%B5%22%20style%3D%22rounded%3D0%3BwhiteSpace%3Dwrap%3Bhtml%3D1%3B%22%20vertex%3D%221%22%20parent%3D%221%22%3E%3CmxGeometry%20x%3D%22827%22%20y%3D%22-664%22%20width%3D%22180%22%20height%3D%2280%22%20as%3D%22geometry%22%2F%3E%3C%2FmxCell%3E%3C%2Froot%3E%3C%2FmxGraphModel%3E&lt;/span&gt;" style="rounded=0;whiteSpace=wrap;html=1;" parent="1" vertex="1">
          <mxGeometry x="960" y="-360.5" width="140" height="30" as="geometry" />
        </mxCell>
        <mxCell id="mTh_-4iABWyhHadGjuGW-43" value="&lt;b&gt;2&lt;/b&gt;, 6 / 12&lt;span style=&quot;color: rgba(0 , 0 , 0 , 0) ; font-family: monospace ; font-size: 0px&quot;&gt;%3CmxGraphModel%3E%3Croot%3E%3CmxCell%20id%3D%220%22%2F%3E%3CmxCell%20id%3D%221%22%20parent%3D%220%22%2F%3E%3CmxCell%20id%3D%222%22%20value%3D%22%EC%BD%94%EB%94%A9%ED%85%8C%EC%8A%A4%ED%8A%B8%20%EC%A4%80%EB%B9%84%20-%20%EC%97%B0%EC%8A%B5%22%20style%3D%22rounded%3D0%3BwhiteSpace%3Dwrap%3Bhtml%3D1%3B%22%20vertex%3D%221%22%20parent%3D%221%22%3E%3CmxGeometry%20x%3D%22827%22%20y%3D%22-664%22%20width%3D%22180%22%20height%3D%2280%22%20as%3D%22geometry%22%2F%3E%3C%2FmxCell%3E%3C%2Froot%3E%3C%2FmxGraphModel%&lt;/span&gt;" style="rounded=0;whiteSpace=wrap;html=1;" parent="1" vertex="1">
          <mxGeometry x="960" y="-400.5" width="140" height="30" as="geometry" />
        </mxCell>
        <mxCell id="mTh_-4iABWyhHadGjuGW-44" value="&lt;b&gt;3&lt;/b&gt;, 0 / 1&lt;span style=&quot;color: rgba(0 , 0 , 0 , 0) ; font-family: monospace ; font-size: 0px&quot;&gt;%3CmxGraphModel%3E%3Croot%3E%3CmxCell%20id%3D%220%22%2F%3E%3CmxCell%20id%3D%221%22%20parent%3D%220%22%2F%3E%3CmxCell%20id%3D%222%22%20value%3D%22%EC%BD%94%EB%94%A9%ED%85%8C%EC%8A%A4%ED%8A%B8%20%EC%A4%80%EB%B9%84%20-%20%EC%97%B0%EC%8A%B5%22%20style%3D%22rounded%3D0%3BwhiteSpace%3Dwrap%3Bhtml%3D1%3B%22%20vertex%3D%221%22%20parent%3D%221%22%3E%3CmxGeometry%20x%3D%22827%22%20y%3D%22-664%22%20width%3D%22180%22%20height%3D%2280%22%20as%3D%22geometry%22%2F%3E%3C%2FmxCell%3E%3C%2Froot%3E%3C%2FmxGraphModel%&lt;/span&gt;" style="rounded=0;whiteSpace=wrap;html=1;" parent="1" vertex="1">
          <mxGeometry x="960" y="-440.5" width="140" height="30" as="geometry" />
        </mxCell>
        <mxCell id="mTh_-4iABWyhHadGjuGW-45" value="&lt;b&gt;4&lt;/b&gt;, 0 / 4&lt;span style=&quot;color: rgba(0 , 0 , 0 , 0) ; font-family: monospace ; font-size: 0px&quot;&gt;%3CmxGraphModel%3E%3Croot%3E%3CmxCell%20id%3D%220%22%2F%3E%3CmxCell%20id%3D%221%22%20parent%3D%220%22%2F%3E%3CmxCell%20id%3D%222%22%20value%3D%22%EC%BD%94%EB%94%A9%ED%85%8C%EC%8A%A4%ED%8A%B8%20%EC%A4%80%EB%B9%84%20-%20%EC%97%B0%EC%8A%B5%22%20style%3D%22rounded%3D0%3BwhiteSpace%3Dwrap%3Bhtml%3D1%3B%22%20vertex%3D%221%22%20parent%3D%221%22%3E%3CmxGeometry%20x%3D%22827%22%20y%3D%22-664%22%20width%3D%22180%22%20height%3D%2280%22%20as%3D%22geometry%22%2F%3E%3C%2FmxCell%3E%3C%2Froot%3E%3C%2FmxGraphModel%&lt;/span&gt;" style="rounded=0;whiteSpace=wrap;html=1;" parent="1" vertex="1">
          <mxGeometry x="960" y="-480.5" width="140" height="30" as="geometry" />
        </mxCell>
        <mxCell id="mTh_-4iABWyhHadGjuGW-46" value="&lt;b&gt;5&lt;/b&gt;, 0 / 16&lt;span style=&quot;color: rgba(0 , 0 , 0 , 0) ; font-family: monospace ; font-size: 0px&quot;&gt;%3CmxGraphModel%3E%3Croot%3E%3CmxCell%20id%3D%220%22%2F%3E%3CmxCell%20id%3D%221%22%20parent%3D%220%22%2F%3E%3CmxCell%20id%3D%222%22%20value%3D%22%EC%BD%94%EB%94%A9%ED%85%8C%EC%8A%A4%ED%8A%B8%20%EC%A4%80%EB%B9%84%20-%20%EC%97%B0%EC%8A%B5%22%20style%3D%22rounded%3D0%3BwhiteSpace%3Dwrap%3Bhtml%3D1%3B%22%20vertex%3D%221%22%20parent%3D%221%22%3E%3CmxGeometry%20x%3D%22827%22%20y%3D%22-664%22%20width%3D%22180%22%20height%3D%2280%22%20as%3D%22geometry%22%2F%3E%3C%2FmxCell%3E%3C%2Froot%3E%3C%2FmxGraphModel&lt;/span&gt;" style="rounded=0;whiteSpace=wrap;html=1;" parent="1" vertex="1">
          <mxGeometry x="960" y="-519.5" width="140" height="30" as="geometry" />
        </mxCell>
        <mxCell id="mTh_-4iABWyhHadGjuGW-47" value="&lt;b&gt;6. 0 / 9&lt;/b&gt;" style="rounded=0;whiteSpace=wrap;html=1;" parent="1" vertex="1">
          <mxGeometry x="960" y="-565" width="140" height="30" as="geometry" />
        </mxCell>
        <mxCell id="mTh_-4iABWyhHadGjuGW-48" value="&lt;b&gt;7. 0 / 7&lt;/b&gt;" style="rounded=0;whiteSpace=wrap;html=1;" parent="1" vertex="1">
          <mxGeometry x="960" y="-614.5" width="140" height="30" as="geometry" />
        </mxCell>
        <mxCell id="mTh_-4iABWyhHadGjuGW-49" value="&lt;div&gt;&lt;b&gt;8. 0 / 3&lt;/b&gt;&lt;/div&gt;" style="rounded=0;whiteSpace=wrap;html=1;" parent="1" vertex="1">
          <mxGeometry x="960" y="-660" width="140" height="30" as="geometry" />
        </mxCell>
        <mxCell id="mTh_-4iABWyhHadGjuGW-50" value="&lt;b&gt;9. 0 / 3&lt;/b&gt;" style="rounded=0;whiteSpace=wrap;html=1;" parent="1" vertex="1">
          <mxGeometry x="1120" y="-360.5" width="140" height="30" as="geometry" />
        </mxCell>
        <mxCell id="mTh_-4iABWyhHadGjuGW-51" value="&lt;b&gt;10. 0 / 8&lt;/b&gt;" style="rounded=0;whiteSpace=wrap;html=1;" parent="1" vertex="1">
          <mxGeometry x="1120" y="-400.5" width="140" height="30" as="geometry" />
        </mxCell>
        <mxCell id="mTh_-4iABWyhHadGjuGW-52" value="&lt;b&gt;11. 0 / 2&lt;/b&gt;" style="rounded=0;whiteSpace=wrap;html=1;" parent="1" vertex="1">
          <mxGeometry x="1120" y="-440.5" width="140" height="30" as="geometry" />
        </mxCell>
        <mxCell id="mTh_-4iABWyhHadGjuGW-53" value="&lt;b&gt;12. 0 / 8&lt;/b&gt;" style="rounded=0;whiteSpace=wrap;html=1;" parent="1" vertex="1">
          <mxGeometry x="1120" y="-480.5" width="140" height="30" as="geometry" />
        </mxCell>
        <mxCell id="mTh_-4iABWyhHadGjuGW-54" value="&lt;b&gt;13. 0 / 7&lt;/b&gt;" style="rounded=0;whiteSpace=wrap;html=1;" parent="1" vertex="1">
          <mxGeometry x="1120" y="-519.5" width="140" height="30" as="geometry" />
        </mxCell>
        <mxCell id="mTh_-4iABWyhHadGjuGW-55" value="&lt;b&gt;14. 0 / 5&amp;nbsp;&lt;/b&gt;" style="rounded=0;whiteSpace=wrap;html=1;" parent="1" vertex="1">
          <mxGeometry x="1120" y="-565" width="140" height="30" as="geometry" />
        </mxCell>
        <mxCell id="BDkJNnGbewyETewIVnR9-2" value="" style="edgeStyle=orthogonalEdgeStyle;rounded=0;orthogonalLoop=1;jettySize=auto;html=1;" parent="1" source="18RsudGsqTFJ1O7Z_rHa-2" target="BDkJNnGbewyETewIVnR9-1" edge="1">
          <mxGeometry relative="1" as="geometry" />
        </mxCell>
        <mxCell id="18RsudGsqTFJ1O7Z_rHa-2" value="&lt;font style=&quot;font-size: 26px&quot;&gt;사람들과 소통하며 도전적인 프로젝트를 하면&amp;nbsp;&lt;br&gt;얼마나 재밌겠나?&lt;/font&gt;" style="rounded=0;whiteSpace=wrap;html=1;" parent="1" vertex="1">
          <mxGeometry x="144" y="-1290" width="540" height="90" as="geometry" />
        </mxCell>
        <mxCell id="iyAlKs3Y1mDKhOXzKE1F-2" value="" style="edgeStyle=orthogonalEdgeStyle;rounded=0;orthogonalLoop=1;jettySize=auto;html=1;" edge="1" parent="1" source="BDkJNnGbewyETewIVnR9-1" target="iyAlKs3Y1mDKhOXzKE1F-1">
          <mxGeometry relative="1" as="geometry" />
        </mxCell>
        <mxCell id="BDkJNnGbewyETewIVnR9-1" value="&lt;font style=&quot;font-size: 18px&quot;&gt;내가 그리워 하는것은 소속감이다.&amp;nbsp;&lt;br&gt;어딘가에 소속되고 싶다.&lt;/font&gt;" style="rounded=0;whiteSpace=wrap;html=1;" parent="1" vertex="1">
          <mxGeometry x="221.5" y="-1420" width="385" height="80" as="geometry" />
        </mxCell>
        <mxCell id="iyAlKs3Y1mDKhOXzKE1F-1" value="&lt;font style=&quot;font-size: 19px&quot;&gt;너의 지긋지긋한 목표를 긴시간동안 해결하지 못한&lt;br&gt;그 우울함 이제 극복하자.&lt;br&gt;&lt;/font&gt;" style="rounded=0;whiteSpace=wrap;html=1;" vertex="1" parent="1">
          <mxGeometry x="171" y="-1550" width="486" height="100" as="geometry" />
        </mxCell>
      </root>
    </mxGraphModel>
  </diagram>
</mxfile>
